<mxfile host="app.diagrams.net" modified="2023-11-08T16:16:47.113Z" agent="Mozilla/5.0 (Macintosh; Intel Mac OS X 10_15_7) AppleWebKit/537.36 (KHTML, like Gecko) Chrome/119.0.0.0 Safari/537.36" etag="PPRsGfuRKDto-asBfCkO" version="22.0.8" type="github">
  <diagram name="Page-1" id="JSvQlHKmjuHyC_3qtoI7">
    <mxGraphModel dx="1834" dy="629" grid="1" gridSize="10" guides="1" tooltips="1" connect="1" arrows="1" fold="1" page="1" pageScale="1" pageWidth="850" pageHeight="1100" math="0" shadow="0">
      <root>
        <mxCell id="0" />
        <mxCell id="1" parent="0" />
        <mxCell id="CkyxEML6klnd8Dqdgb1A-2" value="A&amp;nbsp; &amp;nbsp; &amp;nbsp; &amp;nbsp; &amp;nbsp;work&amp;nbsp; &amp;nbsp; &amp;nbsp; &amp;nbsp;of&amp;nbsp; &amp;nbsp; astonishing&amp;nbsp; &amp;nbsp; &amp;nbsp; &amp;nbsp;delicacy&amp;nbsp; &amp;nbsp; &amp;nbsp;and&amp;nbsp; &amp;nbsp; &amp;nbsp; force." style="rounded=1;whiteSpace=wrap;html=1;" vertex="1" parent="1">
          <mxGeometry x="20" y="810" width="410" height="60" as="geometry" />
        </mxCell>
        <mxCell id="CkyxEML6klnd8Dqdgb1A-40" value="" style="endArrow=none;dashed=1;html=1;dashPattern=1 3;strokeWidth=2;rounded=0;" edge="1" parent="1">
          <mxGeometry width="50" height="50" relative="1" as="geometry">
            <mxPoint x="100" y="810" as="sourcePoint" />
            <mxPoint x="100" y="730" as="targetPoint" />
          </mxGeometry>
        </mxCell>
        <mxCell id="CkyxEML6klnd8Dqdgb1A-41" value="" style="endArrow=none;dashed=1;html=1;dashPattern=1 3;strokeWidth=2;rounded=0;" edge="1" parent="1">
          <mxGeometry width="50" height="50" relative="1" as="geometry">
            <mxPoint x="130" y="810" as="sourcePoint" />
            <mxPoint x="130" y="730" as="targetPoint" />
          </mxGeometry>
        </mxCell>
        <mxCell id="CkyxEML6klnd8Dqdgb1A-42" value="" style="endArrow=none;dashed=1;html=1;dashPattern=1 3;strokeWidth=2;rounded=0;" edge="1" parent="1">
          <mxGeometry width="50" height="50" relative="1" as="geometry">
            <mxPoint x="160" y="810" as="sourcePoint" />
            <mxPoint x="160" y="730" as="targetPoint" />
          </mxGeometry>
        </mxCell>
        <mxCell id="CkyxEML6klnd8Dqdgb1A-43" value="" style="endArrow=none;dashed=1;html=1;dashPattern=1 3;strokeWidth=2;rounded=0;" edge="1" parent="1">
          <mxGeometry width="50" height="50" relative="1" as="geometry">
            <mxPoint x="200" y="810" as="sourcePoint" />
            <mxPoint x="200" y="730" as="targetPoint" />
          </mxGeometry>
        </mxCell>
        <mxCell id="CkyxEML6klnd8Dqdgb1A-44" value="" style="endArrow=none;dashed=1;html=1;dashPattern=1 3;strokeWidth=2;rounded=0;" edge="1" parent="1">
          <mxGeometry width="50" height="50" relative="1" as="geometry">
            <mxPoint x="270" y="810" as="sourcePoint" />
            <mxPoint x="270" y="730" as="targetPoint" />
          </mxGeometry>
        </mxCell>
        <mxCell id="CkyxEML6klnd8Dqdgb1A-45" value="" style="endArrow=none;dashed=1;html=1;dashPattern=1 3;strokeWidth=2;rounded=0;" edge="1" parent="1">
          <mxGeometry width="50" height="50" relative="1" as="geometry">
            <mxPoint x="320" y="810" as="sourcePoint" />
            <mxPoint x="320" y="730" as="targetPoint" />
          </mxGeometry>
        </mxCell>
        <mxCell id="CkyxEML6klnd8Dqdgb1A-46" value="" style="endArrow=none;dashed=1;html=1;dashPattern=1 3;strokeWidth=2;rounded=0;" edge="1" parent="1">
          <mxGeometry width="50" height="50" relative="1" as="geometry">
            <mxPoint x="360" y="810" as="sourcePoint" />
            <mxPoint x="360" y="730" as="targetPoint" />
          </mxGeometry>
        </mxCell>
        <mxCell id="CkyxEML6klnd8Dqdgb1A-47" value="" style="shape=curlyBracket;whiteSpace=wrap;html=1;rounded=1;labelPosition=left;verticalLabelPosition=middle;align=right;verticalAlign=middle;" vertex="1" parent="1">
          <mxGeometry x="60" y="590" width="20" height="130" as="geometry" />
        </mxCell>
        <mxCell id="CkyxEML6klnd8Dqdgb1A-49" value="0" style="text;html=1;align=center;verticalAlign=middle;resizable=0;points=[];autosize=1;strokeColor=none;fillColor=none;" vertex="1" parent="1">
          <mxGeometry x="85" y="580" width="30" height="30" as="geometry" />
        </mxCell>
        <mxCell id="CkyxEML6klnd8Dqdgb1A-50" value="0" style="text;html=1;align=center;verticalAlign=middle;resizable=0;points=[];autosize=1;strokeColor=none;fillColor=none;" vertex="1" parent="1">
          <mxGeometry x="85" y="610" width="30" height="30" as="geometry" />
        </mxCell>
        <mxCell id="CkyxEML6klnd8Dqdgb1A-51" value="0" style="text;html=1;align=center;verticalAlign=middle;resizable=0;points=[];autosize=1;strokeColor=none;fillColor=none;" vertex="1" parent="1">
          <mxGeometry x="85" y="640" width="30" height="30" as="geometry" />
        </mxCell>
        <mxCell id="CkyxEML6klnd8Dqdgb1A-52" value="0" style="text;html=1;align=center;verticalAlign=middle;resizable=0;points=[];autosize=1;strokeColor=none;fillColor=none;" vertex="1" parent="1">
          <mxGeometry x="85" y="670" width="30" height="30" as="geometry" />
        </mxCell>
        <mxCell id="CkyxEML6klnd8Dqdgb1A-53" value="0" style="text;html=1;align=center;verticalAlign=middle;resizable=0;points=[];autosize=1;strokeColor=none;fillColor=none;" vertex="1" parent="1">
          <mxGeometry x="85" y="695" width="30" height="30" as="geometry" />
        </mxCell>
        <mxCell id="CkyxEML6klnd8Dqdgb1A-54" value="5.2e+6" style="text;html=1;align=center;verticalAlign=middle;resizable=0;points=[];autosize=1;strokeColor=none;fillColor=none;" vertex="1" parent="1">
          <mxGeometry x="100" y="580" width="60" height="30" as="geometry" />
        </mxCell>
        <mxCell id="CkyxEML6klnd8Dqdgb1A-55" value="6.1e+6" style="text;html=1;align=center;verticalAlign=middle;resizable=0;points=[];autosize=1;strokeColor=none;fillColor=none;" vertex="1" parent="1">
          <mxGeometry x="100" y="610" width="60" height="30" as="geometry" />
        </mxCell>
        <mxCell id="CkyxEML6klnd8Dqdgb1A-56" value="7." style="text;html=1;align=center;verticalAlign=middle;resizable=0;points=[];autosize=1;strokeColor=none;fillColor=none;" vertex="1" parent="1">
          <mxGeometry x="115" y="640" width="30" height="30" as="geometry" />
        </mxCell>
        <mxCell id="CkyxEML6klnd8Dqdgb1A-57" value="0" style="text;html=1;align=center;verticalAlign=middle;resizable=0;points=[];autosize=1;strokeColor=none;fillColor=none;" vertex="1" parent="1">
          <mxGeometry x="115" y="670" width="30" height="30" as="geometry" />
        </mxCell>
        <mxCell id="CkyxEML6klnd8Dqdgb1A-58" value="0" style="text;html=1;align=center;verticalAlign=middle;resizable=0;points=[];autosize=1;strokeColor=none;fillColor=none;" vertex="1" parent="1">
          <mxGeometry x="115" y="695" width="30" height="30" as="geometry" />
        </mxCell>
        <mxCell id="CkyxEML6klnd8Dqdgb1A-61" value="Eye-tracking" style="text;html=1;align=center;verticalAlign=middle;resizable=0;points=[];autosize=1;strokeColor=none;fillColor=none;" vertex="1" parent="1">
          <mxGeometry x="-30" y="640" width="90" height="30" as="geometry" />
        </mxCell>
      </root>
    </mxGraphModel>
  </diagram>
</mxfile>
